<?xml version="1.0" encoding="utf-8" standalone="yes"?>
<svg version="1.1" xmlns="http://www.w3.org/2000/svg" fill="#000" stroke="#fff" viewBox="0 0 1000 1000">
<path stroke-width="24" d="M227.26 12.01c-33.79 7.9-61.66 38.93-66.6 73.91-2.77 19.37-2.57 586.52.2 603.71 5.33 33.99 28.65 61.26 60.67 71.14 12.05 3.76 18.77 3.95 141.89 3.95h129.24v8.3c0 11.86 6.32 23.71 15.61 28.85 6.13 3.56 10.87 4.35 23.71 4.35h16.01v47.42H377.65l-9.88-7.11c-35.37-26.08-83.59-14.43-102.76 24.5-5.93 12.06-6.52 14.82-6.52 31.03.2 15.41.79 19.17 5.73 29.05 19.76 39.52 69.36 51.38 104.54 24.5l8.3-6.32 74.1-.39c40.71-.2 79.24.2 85.57.79l11.26 1.19v9.09c0 11.07 5.14 20.55 14.23 26.08 6.13 3.56 10.08 3.95 54.54 3.95 40.31 0 49.4-.59 54.94-3.16 9.68-4.55 15.22-13.24 16.21-25.89l.79-10.47h17.59c17 0 17.79.2 26.48 6.92 21.74 16.6 53.36 16.99 78.45 1.19 26.68-16.8 37.74-55.33 24.5-84.38-18.77-41.3-69.56-54.34-105.13-27.27-8.3 6.32-9.49 6.72-25.49 6.72h-16.8v-47.42h14.82c16.6 0 25.29-2.77 32.61-10.87l4.94-5.34.59-111.85c.59-102.96.4-112.64-2.77-118.57-5.73-10.87-13.63-14.23-33.2-14.23H688.3V383.34h19.56c16.8 0 20.16-.59 25.89-4.54 14.23-9.68 14.82-11.46 14.82-51.38 0-39.52-1.19-44.46-13.44-53.55-5.53-4.15-6.92-4.15-116.99-4.15-109.48 0-111.45 0-116.79 4.15-13.04 9.68-13.64 11.66-14.23 49.8-.59 33.2-.4 35.37 3.95 43.67 6.72 12.84 14.03 16.01 37.55 16.01h19.37l-.4 80.43-.59 80.63-18.18.99c-14.23.79-19.37 1.98-23.71 5.14-7.71 5.73-12.45 15.81-12.45 27.07v9.49l-41.89-.59c-35.97-.59-43.08-1.18-49.21-4.15-12.25-6.13-22.92-16.8-28.85-28.65l-5.53-11.26V232.19l4.54-8.89c6.72-13.64 14.62-22.13 26.28-28.65l10.67-5.93 150.19-.99 150.19-.99 9.49-4.74c10.47-5.14 17.39-14.03 21.14-27.07 1.58-5.14 2.17-19.96 1.78-43.48l-.79-35.57-7.31-14.82c-12.05-24.5-32.8-41.89-57.7-48.42-8.3-2.17-48.81-2.77-225.48-2.57-118.97.16-218.77.95-222.92 1.94zm447.6 31.42c11.66 4.35 26.48 17.98 32.21 29.64 2.37 4.74 4.15 14.62 5.14 30.63 1.78 28.06.59 43.08-4.35 49.01l-3.36 4.35-149.99.99-149.79.99-15.41 7.31c-28.06 13.44-46.44 37.94-50.79 67.98-2.57 18.58-2.57 290.1.2 307.09 5.33 33.79 28.85 61.26 61.26 71.34 10.08 3.16 18.38 3.76 52.37 3.76h40.31v118.56H364.6c-143.47 0-138.92.4-155.32-14.03-4.94-4.35-11.26-12.84-14.43-19.17l-5.53-11.26V388.27c0-330.01-.79-306.5 11.46-324.68 6.13-9.09 16.6-17 28.46-21.34 6.13-2.17 46.64-2.57 221.33-2.77 208.67 0 214.21 0 224.29 3.95zm45.05 282.59v27.67H516.37v-55.34h203.54v27.67zm-61.26 138.33v81.02h-81.02V383.33h81.02v81.02zm54.94 210.85.4 101.38H522.3V676.19c0-55.33.59-101.18 1.38-101.77.59-.79 43.67-1.19 95.25-.99l94.06.59.6 101.18zm-54.94 208.09v77.07h-81.02V806.22h81.02v77.07zm-317.17-17.98c4.35 1.98 11.07 6.92 14.62 10.87l6.92 7.11h185.16l-.6 18.18-.59 18.38-93.27.99-93.08.99-4.15 5.34c-5.93 7.51-19.56 13.44-30.63 13.44-28.65 0-47.23-30.43-34.58-56.72 9.1-18.78 31.63-27.08 50.2-18.58zm446.61 0c4.35 1.98 10.87 6.72 14.23 10.67 22.13 25.1 3.75 64.62-29.84 64.62-11.46 0-20.15-3.95-28.85-12.84l-6.72-6.92h-48.62V883.3h47.23l8.89-8.89c12.85-12.86 28.46-16.02 43.68-9.1z"/>
</svg>