<?xml version="1.0" encoding="utf-8" standalone="yes"?>
<svg version="1.1" xmlns="http://www.w3.org/2000/svg" fill="#fff" stroke="#000" viewBox="-20 -20 343.899 343.899">
<path d="M266.925 28.461C242.983 4.52 207.511-4.767 167.038 2.317c-39.5 6.912-79.235 28.7-111.884 61.349A7.5 7.5 0 0 0 65.76 74.273c30.488-30.488 67.374-50.795 103.863-57.181 35.516-6.219 66.308 1.589 86.695 21.977 42.831 42.831 27.039 128.315-35.205 190.558-30.488 30.488-67.374 50.795-103.863 57.181-35.52 6.217-66.308-1.589-86.695-21.977-4.824-4.823-7.191-9.188-7.036-12.973.295-7.188 9.422-14.929 18.25-22.414 11.187-9.487 22.755-19.297 23.311-32.837.326-7.948-3.397-15.868-11.067-23.538-30.167-30.168-25.777-49.291-17.503-64.018a7.5 7.5 0 0 0-13.077-7.348c-15.215 27.083-8.868 53.13 19.974 81.973 4.583 4.583 6.833 8.728 6.686 12.315-.286 6.969-9.304 14.616-18.025 22.012-11.293 9.577-22.97 19.479-23.535 33.239-.339 8.26 3.396 16.174 11.417 24.195 18.703 18.703 44.438 28.462 74.101 28.461 8.309 0 16.931-.767 25.786-2.316 39.5-6.912 79.235-28.7 111.884-61.349s54.437-72.384 61.35-111.884c7.082-40.471-2.203-75.944-26.146-99.888z"/>
<path d="M64.762 229.393c-9.554 9.555-9.554 25.101 0 34.655 4.628 4.628 10.782 7.177 17.327 7.177s12.699-2.549 17.328-7.177c4.628-4.629 7.177-10.782 7.177-17.327 0-6.546-2.549-12.699-7.177-17.328-4.628-4.628-10.782-7.177-17.328-7.177s-12.699 2.549-17.327 7.177zm26.832 17.328a9.443 9.443 0 0 1-2.784 6.72 9.439 9.439 0 0 1-6.721 2.784 9.44 9.44 0 0 1-6.721-2.784c-3.706-3.705-3.706-9.735 0-13.44a9.439 9.439 0 0 1 6.721-2.784c2.539 0 4.926.988 6.721 2.784a9.44 9.44 0 0 1 2.784 6.72zm54.972-26.993a7.5 7.5 0 0 0-10.607-.001c-4.628 4.629-7.178 10.782-7.178 17.328a24.342 24.342 0 0 0 7.177 17.326c4.628 4.629 10.782 7.179 17.328 7.179s12.699-2.55 17.327-7.178c9.554-9.555 9.554-25.101 0-34.655a7.501 7.501 0 0 0-10.606 10.607c3.706 3.705 3.706 9.735 0 13.441-1.795 1.795-4.182 2.784-6.72 2.784s-4.925-.989-6.721-2.785a9.443 9.443 0 0 1-2.784-6.72c0-2.539.989-4.926 2.784-6.721a7.498 7.498 0 0 0 0-10.605zm44.353-41.525c-4.628 4.629-7.177 10.782-7.177 17.328 0 6.545 2.549 12.698 7.177 17.327 4.628 4.628 10.782 7.177 17.327 7.177s12.699-2.549 17.328-7.177c9.554-9.555 9.554-25.101 0-34.655-4.628-4.628-10.782-7.177-17.328-7.177s-12.699 2.549-17.327 7.177zm24.048 24.048a9.439 9.439 0 0 1-6.721 2.784 9.44 9.44 0 0 1-6.721-2.784 9.443 9.443 0 0 1-2.784-6.72c0-2.539.989-4.926 2.784-6.721a9.439 9.439 0 0 1 6.721-2.784c2.539 0 4.926.988 6.721 2.784 3.705 3.706 3.705 9.736 0 13.441zm33.133-46.573c1.464 1.464 3.384 2.196 5.303 2.196s3.839-.732 5.303-2.196c9.554-9.555 9.554-25.101 0-34.655-9.553-9.553-25.1-9.553-34.655 0-9.554 9.555-9.554 25.101 0 34.655a7.501 7.501 0 0 0 10.606-10.607c-3.706-3.705-3.706-9.735 0-13.44 3.705-3.707 9.736-3.709 13.442 0 3.706 3.705 3.706 9.735 0 13.44a7.501 7.501 0 0 0 .001 10.607zm-7.526-108.88a24.345 24.345 0 0 0-17.327 7.177c-9.554 9.555-9.554 25.101 0 34.655 4.628 4.628 10.782 7.177 17.327 7.177s12.699-2.549 17.327-7.177c9.554-9.555 9.554-25.101 0-34.655a24.343 24.343 0 0 0-17.327-7.177zm6.721 31.225c-1.795 1.796-4.182 2.784-6.721 2.784s-4.925-.988-6.721-2.784c-3.706-3.705-3.706-9.735 0-13.44 1.795-1.796 4.182-2.784 6.721-2.784s4.925.988 6.721 2.784c3.706 3.704 3.706 9.735 0 13.44zm-71.77-48.179a24.345 24.345 0 0 0-17.327 7.177c-9.554 9.555-9.554 25.101 0 34.654 4.628 4.629 10.782 7.179 17.328 7.179s12.699-2.55 17.327-7.178c4.628-4.629 7.178-10.782 7.178-17.327 0-6.546-2.549-12.699-7.178-17.328-4.63-4.628-10.783-7.177-17.328-7.177zm6.72 31.226c-1.795 1.795-4.182 2.784-6.72 2.784s-4.925-.989-6.721-2.785c-3.706-3.705-3.706-9.735 0-13.44 1.795-1.796 4.182-2.784 6.721-2.784s4.925.988 6.721 2.784a9.443 9.443 0 0 1 2.784 6.721 9.447 9.447 0 0 1-2.785 6.72zM96.532 88.981c-10.17 0-19.731 3.961-26.922 11.152-7.191 7.191-11.152 16.752-11.152 26.922s3.96 19.731 11.152 26.923c7.191 7.19 16.752 11.151 26.922 11.151s19.731-3.961 26.922-11.151c14.845-14.845 14.845-38.999 0-53.846-7.191-7.19-16.752-11.151-26.922-11.151zm16.316 54.389a22.923 22.923 0 0 1-16.316 6.759c-6.163 0-11.958-2.4-16.315-6.759a22.918 22.918 0 0 1-6.758-16.315 22.92 22.92 0 0 1 6.758-16.315 22.923 22.923 0 0 1 16.315-6.759c6.164 0 11.958 2.4 16.315 6.758 8.997 8.997 8.997 23.635.001 32.631z"/>
</svg>