<?xml version="1.0" encoding="utf-8"?>
<!DOCTYPE svg PUBLIC '-//W3C//DTD SVG 1.0//EN' 'http://www.w3.org/TR/2001/REC-SVG-20010904/DTD/svg10.dtd'>
<svg width="280" height="175" xmlns="http://www.w3.org/2000/svg" font-size="12" fill="white" stroke="black">
	<!--Unicode Character 'EYE' (U+1F441)-->
	<path transform="translate(0 10)" d="m279.8438,77.625q-21.0938,38.1093 -58.7813,58.2187q-36,19.2656 -81,19.2656q-45.1406,0 -81,-19.2656q-37.6875,-20.1094 -59.0625,-58.2187q21.5157,-38.25 58.9219,-58.3594q35.8594,-19.2656 81.1406,-19.2656q45.1406,0 81,19.2656q37.6875,20.1094 58.7813,58.3594zm-26.5781,0q-27.5626,-48.375 -86.9063,-58.2188q17.7187,7.5938 28.2656,23.2812q10.5469,15.6719 10.5469,34.9376q0,18.8437 -10.4062,34.5937q-10.4063,15.75 -27.7032,23.4844q58.9219,-9.9844 86.2032,-58.0781zm-61.5938,0q0,-21.2344 -15.2656,-35.9219q-15.25,-14.7031 -36.4844,-14.7031q-11.1094,0 -21.375,4.6406l-5.3438,-12.2344q-59.2031,10.125 -86.625,58.2188q27.2813,47.9531 86.0626,58.0781q-17.2969,-7.7344 -27.6407,-23.4844q-10.3281,-15.75 -10.3281,-34.5937q0,-11.5313 4.0781,-22.5l13.0781,4.0781q-3.6562,9.1406 -3.6562,18.4219q0,21.2343 15.1875,35.9374q15.1875,14.6876 36.5625,14.6876q21.375,0 36.5625,-14.6876q15.1875,-14.7031 15.1875,-35.9374zm-12.6562,0q0,16.0312 -11.5313,27.2187q-11.5313,11.1719 -27.5625,11.1719q-16.1719,0 -27.6406,-11.1719q-11.4532,-11.1875 -11.4532,-27.2187q0,-7.1719 2.3907,-13.5l39.9375,18.1406l-18.7032,-39.6563q7.5938,-3.375 15.4688,-3.375q16.0312,0 27.5625,11.1875q11.5313,11.1719 11.5313,27.2032z"/>
</svg>