<?xml version="1.0" encoding="utf-8" standalone="yes"?>
<svg version="1.1" xmlns="http://www.w3.org/2000/svg" fill="#fff" stroke="#000" viewBox="0 0 280 175">
<path d="M279.844 87.625q-21.094 38.11-58.782 58.219-36 19.265-81 19.265-45.14 0-81-19.265Q21.376 125.734 0 87.625q21.516-38.25 58.922-58.36Q94.782 10 140.062 10q45.141 0 81 19.266 37.688 20.109 58.782 58.359zm-26.578 0q-27.563-48.375-86.907-58.219Q184.08 37 194.625 52.687q10.547 15.672 10.547 34.938 0 18.844-10.406 34.594-10.407 15.75-27.704 23.484 58.922-9.984 86.204-58.078zm-61.594 0q0-21.234-15.266-35.922Q161.156 37 139.922 37q-11.11 0-21.375 4.64l-5.344-12.234Q54 39.531 26.578 87.625q27.281 47.953 86.063 58.078Q95.344 137.97 85 122.22q-10.328-15.75-10.328-34.594 0-11.531 4.078-22.5l13.078 4.078q-3.656 9.14-3.656 18.422 0 21.234 15.187 35.937 15.188 14.688 36.563 14.688t36.562-14.688q15.188-14.703 15.188-35.937zm-12.656 0q0 16.031-11.532 27.219-11.53 11.172-27.562 11.172-16.172 0-27.64-11.172-11.454-11.188-11.454-27.219 0-7.172 2.39-13.5l39.938 18.14-18.703-39.656q7.594-3.375 15.469-3.375 16.031 0 27.562 11.188 11.532 11.172 11.532 27.203z"/>
</svg>